<svg width="1917" height="1025" viewBox="0 0 1917 1025" fill="none" xmlns="http://www.w3.org/2000/svg">
<mask id="mask0_584_85" style="mask-type:alpha" maskUnits="userSpaceOnUse" x="-3" y="0" width="1920" height="1025">
<rect x="-3" width="1920" height="1025" fill="#17181A"/>
</mask>
<g mask="url(#mask0_584_85)">
<g opacity="0.5">
<path d="M1922.12 221.056C1545.71 337.552 1407.74 489.674 1352.27 609.276C1290.37 742.757 1303.52 895.54 1248.51 900.264C1213.29 903.292 1175.33 843.421 1106.13 713.372C896.291 319.015 899.233 219.294 798.521 184.753C657.438 136.341 554.187 298.653 332.934 276.085C170.431 259.503 46.7635 153.673 -34.866 62.0148" stroke="#303236" stroke-width="1.4742" stroke-miterlimit="10"/>
<path d="M1929.6 236.64C1563.7 350.829 1418.98 497.786 1360.61 609.328C1295.37 733.979 1308.91 878.956 1254.68 881.132C1219.82 882.533 1182.59 823.695 1115.75 698.106C912.601 316.494 913.863 215.389 813.835 182.189C671.764 135.536 571.345 310.462 347.224 293.836C342.337 293.474 337.531 293.064 332.729 292.545C174.171 275.328 48.6316 169.295 -34.9396 77.9958" stroke="#303236" stroke-width="1.4742" stroke-miterlimit="10"/>
<path d="M1937.05 252.221C1581.69 364.093 1430.36 505.623 1368.92 609.369C1300.44 725.009 1314.26 862.352 1260.84 861.989C1226.33 861.759 1189.81 803.948 1125.34 682.825C928.942 313.982 928.595 211.173 829.111 179.623C686.217 134.304 588.413 322.353 361.475 311.588C356.496 311.353 351.533 311.12 346.588 310.675C185.158 296.159 52.8415 187.585 -35.0409 93.9791" stroke="#303236" stroke-width="1.4742" stroke-miterlimit="10"/>
<path d="M1944.51 267.803C1599.66 377.393 1441.94 513.146 1377.25 609.41C1305.71 715.856 1319.61 845.733 1267.01 842.842C1232.83 840.967 1197.08 784.211 1134.95 667.55C945.273 311.433 943.26 207.134 844.401 177.059C700.594 133.311 605.461 334.318 375.739 329.34C370.64 329.23 365.548 329.108 360.486 328.812C196.013 319.151 57.0917 205.881 -35.1021 109.974" stroke="#303236" stroke-width="1.4742" stroke-miterlimit="10"/>
<path d="M1951.98 283.371C1617.64 390.643 1453.81 520.336 1385.58 609.445C1311.25 706.527 1324.93 829.093 1273.18 823.695C1239.33 820.17 1204.33 764.465 1144.56 652.266C961.602 308.89 957.919 203.093 859.69 174.484C714.925 132.32 622.48 346.346 390.001 347.096C384.783 347.103 379.559 347.11 374.334 346.945C206.924 340.997 61.301 224.167 -35.2193 125.938" stroke="#303236" stroke-width="1.4742" stroke-miterlimit="10"/>
<path d="M1959.45 298.938C1635.63 403.896 1466.02 527.179 1393.9 609.474C1317.16 697.049 1330.26 812.44 1279.33 804.551C1245.81 799.356 1211.58 744.723 1154.16 636.981C977.915 306.345 972.555 199.068 874.969 171.904C729.253 131.348 639.477 358.443 404.255 364.819C398.91 364.965 393.564 365.12 388.194 365.05C217.856 362.781 65.4955 242.428 -35.3196 141.89" stroke="#303236" stroke-width="1.4742" stroke-miterlimit="10"/>
<path d="M1966.92 314.503C1653.61 417.161 1478.67 533.687 1402.24 609.508C1323.6 687.517 1335.56 795.761 1285.51 785.405C1252.3 778.536 1218.84 724.965 1163.78 621.703C994.255 303.806 987.201 195.057 890.269 169.329C743.57 130.392 656.485 370.603 418.529 382.556C413.042 382.83 407.586 383.124 402.087 383.166C228.834 384.549 69.7389 260.692 -35.3882 157.856" stroke="#303236" stroke-width="1.4742" stroke-miterlimit="10"/>
<path d="M1974.39 330.067C1671.6 430.42 1506.83 554.431 1410.57 609.54C1348.29 689.78 1340.86 779.06 1291.68 766.262C1258.78 757.7 1226.09 705.237 1173.39 606.396C1010.59 301.239 1001.84 191.04 905.56 166.727C757.881 129.435 673.483 382.801 432.799 400.267C427.203 400.672 421.599 401.099 415.953 401.26C239.778 406.253 73.928 278.949 -35.4929 173.795" stroke="#303236" stroke-width="1.4742" stroke-miterlimit="10"/>
<path d="M1981.86 345.63C1689.58 443.679 1520.99 563.681 1418.9 609.573C1356.57 682.208 1346.17 762.337 1297.85 747.116C1265.26 736.851 1233.35 685.506 1183 591.135C1026.94 298.72 1016.46 187.081 920.844 164.169C772.177 128.545 690.48 395.103 447.062 418.023C441.345 418.563 435.615 419.124 429.823 419.399C250.728 427.97 78.1706 297.242 -35.5833 189.78" stroke="#303236" stroke-width="1.4742" stroke-miterlimit="10"/>
<path d="M1989.33 361.192C1707.57 456.936 1535.15 572.922 1427.23 609.605C1364.85 674.641 1351.48 745.597 1304.02 727.974C1271.74 715.995 1240.6 665.761 1192.61 575.857C1043.25 296.159 1031.07 183.122 936.132 161.598C786.46 127.659 707.488 407.437 461.323 435.764C455.486 436.434 449.626 437.124 443.692 437.518C261.679 449.645 82.3904 315.519 -35.6745 205.746" stroke="#303236" stroke-width="1.4742" stroke-miterlimit="10"/>
<path d="M1996.8 376.752C1725.55 470.192 1549.3 582.165 1435.56 609.631C1373.12 667.064 1356.8 728.83 1310.19 708.828C1278.24 695.116 1247.86 646.013 1202.22 560.587C1059.57 293.641 1045.68 179.184 951.422 159.027C800.742 126.803 724.505 419.824 475.587 453.503C469.623 454.311 463.638 455.122 457.568 455.64C272.623 471.295 86.612 333.793 -35.7641 221.715" stroke="#303236" stroke-width="1.4742" stroke-miterlimit="10"/>
<path d="M2004.27 392.317C1743.55 483.443 1563.44 591.406 1443.89 609.643C1381.4 659.474 1362.12 712.037 1316.37 689.665C1284.74 674.208 1255.12 626.256 1211.84 545.273C1075.91 291.066 1060.29 175.225 966.71 156.419C815.01 125.928 741.538 432.202 489.854 471.201C483.764 472.143 477.675 473.085 471.443 473.703C283.568 492.867 90.8376 352.018 -35.8493 237.629" stroke="#303236" stroke-width="1.4742" stroke-miterlimit="10"/>
<path d="M2011.74 407.874C1761.53 496.697 1577.62 600.649 1452.22 609.691C1389.67 651.919 1367.47 695.26 1322.53 670.542C1291.24 653.331 1262.37 606.53 1221.44 530.008C1092.21 288.535 1074.88 171.326 982.003 153.857C829.279 125.134 758.593 444.69 504.115 488.946C497.909 490.027 491.668 491.088 485.294 491.842C294.481 514.474 95.038 370.328 -35.9582 253.611" stroke="#303236" stroke-width="1.4742" stroke-miterlimit="10"/>
<path d="M2019.2 423.43C1779.52 509.95 1591.78 609.885 1460.55 609.712C1397.95 644.339 1372.84 678.457 1328.7 651.397C1297.76 632.426 1269.62 586.793 1231.05 514.731C1108.56 285.992 1089.48 167.415 997.292 151.276C843.531 124.343 775.662 457.205 518.382 506.673C512.05 507.893 505.678 509.077 499.179 509.953C305.423 536.061 99.2754 388.578 -36.0657 269.567" stroke="#303236" stroke-width="1.4742" stroke-miterlimit="10"/>
<path d="M2026.68 438.987C1797.5 523.202 1605.93 619.125 1468.88 609.746C1406.23 636.771 1378.21 661.652 1334.87 632.245C1304.29 611.509 1276.87 567.047 1240.68 499.443C1124.91 283.439 1104.1 163.537 1012.6 148.693C857.809 123.577 792.776 469.697 532.666 524.395C526.213 525.75 519.711 527.054 513.076 528.054C316.356 557.609 103.518 406.832 -36.1074 285.517" stroke="#303236" stroke-width="1.4742" stroke-miterlimit="10"/>
<path d="M2034.15 454.543C1815.49 536.454 1620.09 628.365 1477.22 609.777C1414.5 629.2 1383.61 644.842 1341.03 613.117C1310.83 590.608 1284.13 547.317 1250.26 484.17C1141.21 280.906 1118.67 159.678 1027.86 146.119C872.034 122.852 809.861 482.271 546.907 542.105C540.334 543.598 533.701 545.023 526.897 546.139C327.241 579.152 107.715 425.103 -36.2228 301.497" stroke="#303236" stroke-width="1.4742" stroke-miterlimit="10"/>
<path d="M2041.62 470.124C1833.47 549.731 1634.25 637.624 1485.54 609.842C1422.8 621.682 1389.02 628.061 1347.2 594.011C1317.38 569.729 1291.38 527.613 1259.87 468.935C1157.54 278.393 1133.26 155.85 1043.14 143.567C886.276 122.178 826.987 494.9 561.158 559.901C554.463 561.538 547.7 563.078 540.782 564.32C338.129 600.708 111.908 443.386 -36.3234 317.449" stroke="#303236" stroke-width="1.4742" stroke-miterlimit="10"/>
<path d="M2049.09 485.724C1851.45 563.033 1648.4 646.933 1493.87 609.922C1431.05 614.15 1394.44 611.303 1353.37 574.926C1323.95 548.89 1298.63 507.926 1269.48 453.687C1173.87 275.871 1147.85 152.022 1058.43 140.992C900.519 121.495 844.135 507.517 575.413 577.631C568.602 579.412 561.704 581.067 554.65 582.434C349.002 622.245 116.134 461.668 -36.4251 333.399" stroke="#303236" stroke-width="1.4742" stroke-miterlimit="10"/>
<path d="M2056.56 501.302C1869.44 576.281 1669.4 599.967 1502.2 609.968C1439.63 613.711 1399.88 594.503 1359.53 555.798C1330.51 527.986 1305.87 488.195 1279.08 438.413C1190.19 273.312 1162.44 148.189 1073.71 138.399C914.763 120.862 861.303 520.178 589.666 595.402C582.74 597.318 575.695 599.092 568.51 600.583C359.869 643.788 120.358 479.964 -36.5351 349.393" stroke="#303236" stroke-width="1.4742" stroke-miterlimit="10"/>
<path d="M2064.03 516.88C1887.41 589.59 1681.52 653.142 1510.52 610.04C1448.84 594.489 1405.33 577.734 1365.7 536.695C1337.1 507.107 1313.12 468.495 1288.69 423.165C1206.5 270.789 1177.03 144.402 1088.99 135.837C929.014 120.271 878.494 532.862 603.923 613.169C596.87 615.228 589.697 617.105 582.369 618.728C370.603 664.961 124.55 498.253 -36.6555 365.365" stroke="#303236" stroke-width="1.4742" stroke-miterlimit="10"/>
<path d="M2071.5 532.459C1905.41 602.87 1693.8 668.664 1518.85 610.099C1456.79 589.321 1410.8 560.95 1371.86 517.581C1343.69 486.219 1320.37 448.774 1298.29 407.906C1222.83 268.252 1191.65 140.299 1104.28 133.257C943.22 120.277 895.87 545.885 618.178 630.923C611.015 633.135 603.701 635.116 596.236 636.865C381.502 686.647 128.759 516.544 -36.7428 381.345" stroke="#303236" stroke-width="1.4742" stroke-miterlimit="10"/>
<path d="M2078.97 548.038C1923.4 616.144 1705.03 684.007 1527.18 610.152C1259.08 498.801 1265.38 141.04 1119.56 130.681C953.322 118.87 910.71 581.36 610.096 655.002C392.406 708.329 132.945 534.83 -36.8461 397.31" stroke="#303236" stroke-width="1.4742" stroke-miterlimit="10"/>
</g>
</g>
</svg>
